<svg width="250" height="205" viewBox="0 0 250 205" fill="none" xmlns="http://www.w3.org/2000/svg"><path d="M1 125.938v-124 0h100v124" stroke="#48597D" stroke-width="2"/><path stroke="#48597D" stroke-width="2" d="M11.006 17.938h78.996v49H11.006z"/><path d="M19 83.437h63.32M19 92.1h54.468M19 100.773h63.32M19 110.437h31.32" stroke="#48597D" stroke-width="2" stroke-linecap="square"/><path fill="#DADEE5" d="M147 73.063h103v131H147z"/><path d="M30.469 43.135c0 1.41-.403 2.49-1.207 3.24-.801.75-1.96 1.125-3.475 1.125h-2.426v-8.566h2.69c1.398 0 2.484.369 3.258 1.107.773.738 1.16 1.77 1.16 3.094zm-1.887.047c0-1.84-.813-2.76-2.438-2.76h-.966V46h.779c1.75 0 2.625-.94 2.625-2.818zm8.162 4.318l-.24-.838h-.094a1.904 1.904 0 0 1-.814.71 2.808 2.808 0 0 1-1.201.245c-.77 0-1.35-.205-1.74-.615-.391-.414-.587-1.008-.587-1.781v-4.272h1.788v3.826c0 .473.084.828.251 1.067.168.234.436.351.803.351.5 0 .862-.166 1.084-.498.223-.336.334-.89.334-1.664V40.95h1.787V47.5h-1.37zm6.844.117c-.77 0-1.373-.28-1.81-.838h-.094c.062.547.093.864.093.95v2.654H39.99v-9.434h1.453l.252.85h.082c.418-.649 1.038-.973 1.858-.973.773 0 1.379.299 1.816.897.438.597.656 1.427.656 2.49 0 .7-.103 1.306-.31 1.822-.203.516-.494.908-.873 1.178-.38.27-.824.404-1.336.404zm-.528-5.361c-.44 0-.763.137-.966.41-.203.27-.309.717-.317 1.342v.193c0 .703.104 1.207.31 1.512.212.305.544.457.997.457.8 0 1.201-.66 1.201-1.98 0-.645-.1-1.127-.299-1.448-.195-.324-.504-.486-.925-.486zm6.311 5.244h-1.787v-9.117h1.787V47.5zm1.805-8.244c0-.582.324-.873.972-.873.649 0 .973.29.973.873 0 .277-.082.494-.246.65-.16.153-.402.229-.727.229-.648 0-.972-.293-.972-.88zm1.863 8.244h-1.787v-6.55h1.787v6.55zm4.541.117c-2.039 0-3.058-1.119-3.058-3.357 0-1.113.277-1.963.831-2.55.555-.589 1.35-.884 2.385-.884.758 0 1.438.149 2.04.446l-.528 1.382a8.329 8.329 0 0 0-.785-.275 2.468 2.468 0 0 0-.727-.111c-.93 0-1.394.66-1.394 1.98 0 1.281.465 1.922 1.394 1.922.344 0 .662-.045.955-.135.293-.094.586-.238.88-.433v1.529c-.29.184-.583.31-.88.38-.293.071-.664.106-1.113.106zm7.676-.117l-.346-.89h-.047c-.3.378-.611.642-.931.79-.317.145-.73.217-1.242.217-.63 0-1.125-.18-1.489-.539-.36-.36-.539-.871-.539-1.535 0-.695.242-1.207.727-1.535.488-.332 1.222-.516 2.203-.551l1.136-.035v-.287c0-.664-.34-.996-1.019-.996-.524 0-1.139.158-1.846.474l-.591-1.207c.753-.394 1.59-.591 2.507-.591.88 0 1.553.19 2.022.574.468.383.703.964.703 1.746V47.5h-1.248zm-.528-3.035l-.69.023c-.52.016-.907.11-1.161.282-.254.171-.38.433-.38.785 0 .504.288.755.866.755.414 0 .744-.119.99-.357.25-.238.376-.555.376-.95v-.538zm6.381 1.728c.313 0 .688-.068 1.125-.205v1.33c-.445.2-.992.3-1.64.3-.715 0-1.237-.18-1.565-.54-.324-.363-.486-.906-.486-1.629v-3.158h-.856v-.756l.985-.597.516-1.383h1.142v1.394h1.834v1.342H70.33v3.158c0 .254.07.442.211.563.145.12.334.181.568.181zm5.168-4.095c-.379 0-.675.12-.89.363-.215.238-.338.578-.37 1.02h2.508c-.007-.442-.123-.782-.345-1.02-.223-.242-.524-.363-.903-.363zm.252 5.52c-1.054 0-1.879-.292-2.472-.874-.594-.582-.891-1.406-.891-2.472 0-1.098.273-1.946.82-2.544.551-.601 1.31-.902 2.28-.902.925 0 1.646.264 2.162.791.515.528.773 1.256.773 2.186v.867h-4.224c.02.508.17.904.45 1.19.282.285.676.427 1.184.427.395 0 .768-.04 1.12-.123a5.604 5.604 0 0 0 1.101-.392v1.382a4.109 4.109 0 0 1-1.002.346c-.355.078-.789.117-1.3.117z" fill="#48597D"/><path d="M116 21.938h75.757v31l7.764-8.5M124.521 170.062H48.764v-30.999l-7.764 8.5M142 191.938v-124 0h100v124" stroke="#48597D" stroke-width="2"/><path stroke="#48597D" stroke-width="2" d="M152 83.938h79v49h-79z"/><path d="M160 149.437h63.319M160 158.1h54.468M160 166.774h63.319M160 176.437h31.319" stroke="#48597D" stroke-width="2" stroke-linecap="square"/></svg>