<?xml version="1.0" standalone="no"?>
<!DOCTYPE svg PUBLIC "-//W3C//DTD SVG 20010904//EN"
 "http://www.w3.org/TR/2001/REC-SVG-20010904/DTD/svg10.dtd">
<svg version="1.0" xmlns="http://www.w3.org/2000/svg"
 width="486.000000pt" height="428.000000pt" viewBox="0 0 486.000000 428.000000"
 preserveAspectRatio="xMidYMid meet">

<g transform="translate(0.000000,428.000000) scale(0.100000,-0.100000)"
fill="#000000" stroke="none">
<path d="M1590 4046 l0 -233 92 -7 c50 -3 394 -6 765 -6 l673 0 0 -61 0 -61
28 7 c27 6 30 3 50 -44 15 -38 25 -49 36 -45 9 3 16 7 16 8 0 0 -9 25 -20 53
l-20 53 25 6 c31 8 31 9 -2 48 l-26 31 46 3 47 3 0 142 c0 78 -3 186 -7 240
l-6 97 -849 0 -848 0 0 -234z m1670 -6 l0 -200 -45 0 c-38 0 -50 5 -70 28
l-24 27 -1 -27 0 -28 -750 0 -750 0 0 200 0 200 820 0 820 0 0 -200z"/>
<path d="M1900 4045 c0 -72 3 -85 16 -85 14 0 16 10 12 65 -2 36 -1 65 2 65 3
0 22 -30 44 -65 53 -90 66 -86 66 20 0 50 -4 85 -10 85 -6 0 -10 -29 -10 -67
l0 -68 -43 68 c-26 41 -48 67 -59 67 -16 0 -18 -11 -18 -85z"/>
<path d="M2480 4045 c0 -69 3 -85 15 -85 10 0 15 11 15 35 0 32 3 35 28 35 35
0 52 16 52 52 0 33 -24 48 -74 48 l-36 0 0 -85z m80 50 c18 -21 5 -45 -25 -45
-21 0 -25 5 -25 30 0 23 5 30 19 30 10 0 24 -7 31 -15z"/>
<path d="M2097 4072 c-22 -25 -21 -75 1 -95 20 -19 67 -23 77 -7 4 6 -6 10
-24 10 -20 0 -34 7 -41 20 -10 19 -8 20 35 20 37 0 45 3 45 18 0 24 -31 52
-57 52 -11 0 -27 -8 -36 -18z m63 -17 c0 -9 -9 -15 -25 -15 -24 0 -32 10 -18
23 12 13 43 7 43 -8z"/>
<path d="M2210 4079 c0 -31 33 -119 45 -119 7 0 19 21 26 50 14 56 20 56 34
-3 17 -64 38 -59 57 15 10 34 15 64 13 66 -10 10 -24 -12 -30 -48 -9 -52 -20
-51 -31 2 -13 63 -37 61 -54 -4 l-14 -53 -14 53 c-13 46 -32 71 -32 41z"/>
<path d="M2641 4081 c-11 -7 -6 -10 19 -13 46 -4 48 -22 3 -34 -33 -8 -38 -13
-38 -39 0 -24 5 -31 24 -33 13 -2 28 1 34 7 7 7 14 7 24 0 10 -9 13 -1 13 43
0 30 -5 59 -12 66 -14 14 -47 15 -67 3z m57 -78 c-4 -20 -35 -30 -50 -15 -15
15 0 32 28 32 19 0 25 -5 22 -17z"/>
<path d="M2772 4078 c-15 -15 -16 -45 -2 -53 11 -7 6 -34 -12 -73 -15 -30 0
-44 46 -44 44 0 68 18 64 46 -2 16 -11 22 -40 24 -43 4 -55 32 -13 32 25 0 51
32 40 50 -3 6 -1 10 4 10 6 0 11 5 11 10 0 14 -84 12 -98 -2z m58 -27 c0 -27
-19 -36 -37 -18 -18 18 -9 37 18 37 12 0 19 -7 19 -19z m16 -102 c8 -14 -14
-29 -43 -29 -24 0 -38 14 -28 30 8 14 62 13 71 -1z"/>
<path d="M2923 4082 c-32 -20 -32 -94 0 -114 17 -11 65 -10 72 2 4 6 -8 10
-28 10 -23 0 -37 6 -41 16 -9 24 -9 24 34 24 36 0 40 3 40 25 0 34 -46 57 -77
37z m55 -29 c2 -9 -7 -13 -27 -13 -23 0 -29 4 -24 16 6 17 44 15 51 -3z"/>
<path d="M30 2620 c0 -493 3 -750 10 -750 7 0 10 253 10 740 l0 740 2390 0
2390 0 0 -740 c0 -651 2 -740 15 -740 13 0 15 90 15 750 l0 750 -2415 0 -2415
0 0 -750z"/>
<path d="M970 1710 c0 -820 3 -1240 10 -1240 7 0 10 417 10 1230 l0 1230 1460
0 1460 0 0 -1230 c0 -813 3 -1230 10 -1230 7 0 10 420 10 1240 l0 1240 -1480
0 -1480 0 0 -1240z"/>
<path d="M1250 2130 l0 -500 1190 0 1190 0 0 500 0 500 -1190 0 -1190 0 0
-500z m2350 0 l0 -470 -1160 0 -1160 0 0 470 0 470 1160 0 1160 0 0 -470z"/>
<path d="M0 1523 c0 -27 3 -85 7 -130 5 -64 9 -83 21 -83 13 0 14 15 9 98 -4
53 -7 112 -7 130 0 22 -5 32 -15 32 -11 0 -15 -12 -15 -47z"/>
<path d="M4810 1470 c0 -60 4 -100 10 -100 6 0 10 40 10 100 0 60 -4 100 -10
100 -6 0 -10 -40 -10 -100z"/>
<path d="M1490 1310 c0 -7 320 -10 940 -10 620 0 940 3 940 10 0 7 -320 10
-940 10 -620 0 -940 -3 -940 -10z"/>
<path d="M4810 1025 c0 -83 4 -135 10 -135 6 0 10 52 10 135 0 83 -4 135 -10
135 -6 0 -10 -52 -10 -135z"/>
<path d="M1490 1135 c0 -13 97 -15 810 -15 713 0 810 2 810 15 0 13 -97 15
-810 15 -713 0 -810 -2 -810 -15z"/>
<path d="M14 1068 c3 -13 6 -71 6 -130 0 -65 4 -108 10 -108 6 0 10 50 10 130
0 113 -2 130 -16 130 -12 0 -15 -6 -10 -22z"/>
<path d="M1490 965 c0 -13 111 -15 940 -15 829 0 940 2 940 15 0 13 -111 15
-940 15 -829 0 -940 -2 -940 -15z"/>
<path d="M1490 770 c0 -7 163 -10 470 -10 307 0 470 3 470 10 0 7 -163 10
-470 10 -307 0 -470 -3 -470 -10z"/>
<path d="M4810 545 c0 -83 4 -135 10 -135 6 0 10 52 10 135 0 83 -4 135 -10
135 -6 0 -10 -52 -10 -135z"/>
<path d="M20 548 c0 -92 12 -198 21 -198 5 0 9 58 9 130 0 109 -2 130 -15 130
-12 0 -15 -14 -15 -62z"/>
<path d="M4810 115 l0 -85 -40 0 c-29 0 -40 -4 -40 -15 0 -11 12 -15 50 -15
l50 0 0 100 c0 60 -4 100 -10 100 -6 0 -10 -35 -10 -85z"/>
<path d="M30 65 l0 -65 85 0 c69 0 85 3 85 15 0 12 -14 15 -70 15 l-70 0 0 50
c0 38 -4 50 -15 50 -12 0 -15 -14 -15 -65z"/>
<path d="M410 15 c0 -13 22 -15 135 -15 113 0 135 2 135 15 0 13 -22 15 -135
15 -113 0 -135 -2 -135 -15z"/>
<path d="M890 15 c0 -13 22 -15 135 -15 113 0 135 2 135 15 0 13 -22 15 -135
15 -113 0 -135 -2 -135 -15z"/>
<path d="M1370 15 c0 -13 22 -15 135 -15 113 0 135 2 135 15 0 13 -22 15 -135
15 -113 0 -135 -2 -135 -15z"/>
<path d="M1850 15 c0 -13 22 -15 135 -15 113 0 135 2 135 15 0 13 -22 15 -135
15 -113 0 -135 -2 -135 -15z"/>
<path d="M2330 15 c0 -13 22 -15 135 -15 113 0 135 2 135 15 0 13 -22 15 -135
15 -113 0 -135 -2 -135 -15z"/>
<path d="M2810 15 c0 -13 22 -15 135 -15 113 0 135 2 135 15 0 13 -22 15 -135
15 -113 0 -135 -2 -135 -15z"/>
<path d="M3290 15 c0 -13 22 -15 135 -15 113 0 135 2 135 15 0 13 -22 15 -135
15 -113 0 -135 -2 -135 -15z"/>
<path d="M3770 15 c0 -13 22 -15 135 -15 113 0 135 2 135 15 0 13 -22 15 -135
15 -113 0 -135 -2 -135 -15z"/>
<path d="M4250 15 c0 -13 22 -15 135 -15 113 0 135 2 135 15 0 13 -22 15 -135
15 -113 0 -135 -2 -135 -15z"/>
</g>
</svg>
