<?xml version="1.0" standalone="no"?>
<!DOCTYPE svg PUBLIC "-//W3C//DTD SVG 20010904//EN"
 "http://www.w3.org/TR/2001/REC-SVG-20010904/DTD/svg10.dtd">
<svg version="1.0" xmlns="http://www.w3.org/2000/svg"
 width="176.000000pt" height="180.000000pt" viewBox="0 0 176.000000 180.000000"
 preserveAspectRatio="xMidYMid meet">

<g transform="translate(0.000000,180.000000) scale(0.100000,-0.100000)"
fill="#000000" stroke="none">
<path d="M120 1360 l0 -300 295 0 295 0 0 300 0 300 -295 0 -295 0 0 -300z
m560 0 l0 -260 -260 0 -260 0 0 260 0 260 260 0 260 0 0 -260z"/>
<path d="M970 1457 c8 -7 44 -19 79 -26 210 -41 385 -213 422 -417 6 -32 15
-67 20 -76 8 -17 1 -18 -86 -18 -78 0 -95 -3 -95 -15 0 -12 18 -15 106 -15
l106 0 -7 63 c-26 228 -173 413 -388 488 -88 31 -184 40 -157 16z"/>
<path d="M346 818 c15 -139 74 -266 170 -362 94 -94 245 -166 347 -166 34 0
38 2 27 15 -7 8 -23 15 -36 15 -41 0 -172 47 -223 79 -60 39 -149 131 -183
191 -25 43 -60 150 -72 218 l-5 32 89 0 c73 0 90 3 90 15 0 12 -18 15 -105 15
l-104 0 5 -52z"/>
<path d="M1307 689 c-90 -14 -179 -85 -219 -177 -14 -30 -20 -66 -20 -114 0
-116 62 -211 174 -270 61 -31 174 -31 240 1 61 29 120 88 149 149 32 66 32
179 1 240 -67 128 -188 192 -325 171z m153 -50 c210 -95 212 -377 5 -475 -166
-79 -364 50 -365 236 0 64 31 139 76 184 72 72 194 96 284 55z"/>
</g>
</svg>
