<svg width="203" height="243" viewBox="0 0 203 243" fill="none" xmlns="http://www.w3.org/2000/svg"><path fill-rule="evenodd" clip-rule="evenodd" d="M68.998 96c22.09 0 39.998-17.909 39.998-40S91.089 16 68.998 16C46.908 16 29 33.909 29 56s17.908 40 39.998 40z" fill="#DADEE5"/><path fill-rule="evenodd" clip-rule="evenodd" d="M140 80.981c22.091 0 40-17.908 40-40 0-22.09-17.909-40-40-40s-40 17.91-40 40c0 22.092 17.909 40 40 40z" fill="#DADEE5"/><path d="M112 242.962v-85.981 0h90v85.981" stroke="#48597D" stroke-width="2"/><path stroke="#48597D" stroke-width="2" d="M121 169h72v32.981h-72z"/><path d="M129 213.318h56.393M129 219.207h48.51M129 225.077h56.393M129 231.647h27.893" stroke="#48597D" stroke-width="2" stroke-linecap="square"/><path d="M1 242.962v-85.981 0h89.996v85.981" stroke="#48597D" stroke-width="2"/><path stroke="#48597D" stroke-width="2" d="M10 169h72v32.981H10z"/><path d="M17.994 213.318h56.394M17.994 219.207h48.51M17.994 225.077h56.394M17.994 231.647h27.894" stroke="#48597D" stroke-width="2" stroke-linecap="square"/><path d="M45.998 156.373v-33.009H157v33.009M172 47.995C172 69.537 154.539 87 133 87S94 69.537 94 47.995c0-21.541 17.461-39.004 39-39.004s39 17.463 39 39.005z" stroke="#48597D" stroke-width="2"/><path d="M123.996 59.981v-1.896a9 9 0 0 1 9-9v0a9 9 0 0 1 9 9v1.896M137.182 41.448a4.456 4.456 0 1 1-8.91 0 4.456 4.456 0 1 1 8.91 0zM107.996 47.995C107.996 69.537 90.536 87 68.998 87 47.46 87 30 69.537 30 47.995 30 26.454 47.46 8.992 68.998 8.992c21.538 0 38.998 17.463 38.998 39.005z" stroke="#48597D" stroke-width="2"/><path d="M59.998 59.981v-1.897a9 9 0 0 1 9-8.999v0c4.97 0 8.998 4.029 8.998 8.999v1.897M73.181 41.448a4.456 4.456 0 0 1-4.454 4.458 4.456 4.456 0 0 1-4.455-4.458 4.456 4.456 0 0 1 4.455-4.457 4.456 4.456 0 0 1 4.454 4.457z" stroke="#48597D" stroke-width="2"/><path d="M101 123.353V88" stroke="#48597D" stroke-width="2" stroke-linecap="square"/></svg>