<svg width="241" height="179" viewBox="0 0 241 179" fill="none" xmlns="http://www.w3.org/2000/svg"><path d="M93 178.062v-124 0h147v124" stroke="#48597D" stroke-width="2"/><path stroke="#48597D" stroke-width="2" d="M107 70h118v48.999H107z"/><path fill="#DADEE5" d="M0 127h49v36.001H0zM0 .938h49v36H0z"/><path d="M16.006 19.151l5.858 6.037 11.888-12.25" stroke="#48597D" stroke-width="2"/><path d="M119 135.562h93M119 144.226h80M119 152.899h93M119 162.562h46" stroke="#48597D" stroke-width="2" stroke-linecap="square"/><path d="M7.68 80l-.621-2.04H3.936L3.314 80H1.357l3.024-8.602H6.6L9.638 80H7.68zm-1.055-3.563l-.973-3.134a9.87 9.87 0 0 1-.152-.575c-.129.5-.498 1.737-1.107 3.71h2.232zM2.547 87.434h2.666c1.215 0 2.096.173 2.642.521.551.344.827.893.827 1.647 0 .511-.121.931-.364 1.26a1.429 1.429 0 0 1-.955.591v.059c.543.12.934.347 1.172.68.242.331.363.773.363 1.324 0 .78-.283 1.39-.85 1.828-.562.437-1.327.656-2.296.656H2.547v-8.566zm1.816 3.392h1.055c.492 0 .848-.076 1.066-.228.223-.153.334-.405.334-.756 0-.328-.12-.563-.363-.703-.238-.145-.617-.217-1.137-.217h-.955v1.904zm0 1.442V94.5h1.184c.5 0 .869-.096 1.107-.287.239-.191.358-.484.358-.879 0-.711-.508-1.066-1.524-1.066H4.363z" fill="#48597D"/><path d="M15.996 145.151l5.86 6.036 11.892-12.249M40 147.5h66M40 19.438h90.5v64.5M16.996 87.938h64v8h-64zM16.996 74.063h48v8h-48z" stroke="#48597D" stroke-width="2"/></svg>