<svg xmlns="http://www.w3.org/2000/svg" width="19" height="27.018" viewBox="0 0 19 27.018">
  <g id="Group_18" data-name="Group 18" transform="translate(-447.168 -3474.919)">
    <path id="Icon_ionic-ios-arrow-down" data-name="Icon ionic-ios-arrow-down" d="M15.691,18.835l7.184-7.19a1.352,1.352,0,0,1,1.918,0,1.369,1.369,0,0,1,0,1.923l-8.14,8.146a1.355,1.355,0,0,1-1.872.04l-8.2-8.18A1.358,1.358,0,0,1,8.5,11.651Z" transform="translate(440.981 3463.672)" fill="#fff"/>
    <path id="Icon_ionic-ios-arrow-down-2" data-name="Icon ionic-ios-arrow-down" d="M13.321,16.943l5.393-5.4a1.015,1.015,0,0,1,1.439,0,1.028,1.028,0,0,1,0,1.444L14.043,19.1a1.017,1.017,0,0,1-1.405.03l-6.153-6.14A1.019,1.019,0,0,1,7.924,11.55Z" transform="translate(443.35 3476.027)" fill="#fff" opacity="0.73"/>
    <path id="Icon_ionic-ios-arrow-down-3" data-name="Icon ionic-ios-arrow-down" d="M10.577,14.752,13.9,11.431a.625.625,0,0,1,.886,0,.632.632,0,0,1,0,.888l-3.76,3.763a.626.626,0,0,1-.865.018L6.37,12.322a.627.627,0,0,1,.886-.888Z" transform="translate(446.093 3485.672)" fill="#fff" opacity="0.29"/>
  </g>
</svg>
