<svg xmlns="http://www.w3.org/2000/svg" width="15.03" height="127.859" viewBox="0 0 15.03 127.859">
  <g id="Group_322" data-name="Group 322" transform="translate(-79.53 -608.141)">
    <path id="Icon_awesome-instagram" data-name="Icon awesome-instagram" d="M7.511,5.9a3.853,3.853,0,1,0,3.853,3.853A3.847,3.847,0,0,0,7.511,5.9Zm0,6.357a2.5,2.5,0,1,1,2.5-2.5,2.509,2.509,0,0,1-2.5,2.5ZM12.42,5.741a.9.9,0,1,1-.9-.9A.9.9,0,0,1,12.42,5.741Zm2.552.912A4.447,4.447,0,0,0,13.758,3.5,4.476,4.476,0,0,0,10.61,2.291c-1.241-.07-4.959-.07-6.2,0A4.47,4.47,0,0,0,1.261,3.5,4.462,4.462,0,0,0,.048,6.649c-.07,1.241-.07,4.959,0,6.2A4.447,4.447,0,0,0,1.261,16,4.482,4.482,0,0,0,4.41,17.212c1.241.07,4.959.07,6.2,0A4.447,4.447,0,0,0,13.758,16a4.476,4.476,0,0,0,1.214-3.148c.07-1.241.07-4.956,0-6.2Zm-1.6,7.528a2.536,2.536,0,0,1-1.428,1.428,16.561,16.561,0,0,1-4.429.3,16.69,16.69,0,0,1-4.429-.3A2.536,2.536,0,0,1,1.654,14.18a16.561,16.561,0,0,1-.3-4.429,16.69,16.69,0,0,1,.3-4.429A2.536,2.536,0,0,1,3.082,3.893a16.561,16.561,0,0,1,4.429-.3,16.69,16.69,0,0,1,4.429.3,2.536,2.536,0,0,1,1.428,1.428,16.561,16.561,0,0,1,.3,4.429A16.551,16.551,0,0,1,13.369,14.18Z" transform="translate(79.535 605.903)"/>
    <text id="Gazillionx" transform="translate(88.879 662) rotate(-90)" font-size="7" font-family="Montserrat-Bold, Montserrat" font-weight="700" letter-spacing="0.449em"><tspan x="-73.353" y="0">GAZILLIONX</tspan></text>
    <g id="Group_46" data-name="Group 46" transform="translate(-22.47 -29.962)">
      <path id="Path_6870" data-name="Path 6870" d="M2226,652.016v21.214" transform="translate(-2116.953 3.905)" fill="none" stroke="#000" stroke-width="1"/>
      <g id="Ellipse_9" data-name="Ellipse 9" transform="translate(106.941 675.962)" fill="#fff" stroke="#000" stroke-width="1">
        <circle cx="2" cy="2" r="2" stroke="none"/>
        <circle cx="2" cy="2" r="1.5" fill="none"/>
      </g>
    </g>
  </g>
</svg>
